<svg version="1.1" id="Calque_4" xmlns="http://www.w3.org/2000/svg" xmlns:xlink="http://www.w3.org/1999/xlink" x="0px" y="0px"
             viewBox="0 0 438.6 174" style="enable-background:new 0 0 438.6 174;" xml:space="preserve">

              <title>bateau</title>
              <path class="st0" d="M425.7,35.1c-0.1-1.7-0.9-3.1-2-4c-0.1-0.1-0.3-0.2-0.4-0.3c-4.4-2.7-15.1-5.3-60.2-0.5
            c-19.9,2.1-38.9,4.9-45.4,5.9c-28.3-26-36.8-30.2-37.7-30.6c-0.8-0.4-1.7-0.5-2.6-0.4c-47.4,5.7-99.3,51.1-107.3,58.3l-1.9,0.5
            c-46.4,11.1-78.2,18.7-95.6,21.8l-2.9-8.8c-1.2-3.9-3.7-7.3-7.2-9.4c-6.7-4.4-15.3-5.5-22.9-2.9c-3.2,1-6.3,2.3-9.3,3.8
            c-13.2,6.7-20,21.9-16,36.2c1.9,6.7,4.8,11.1,8.6,13.3c0.2,0.1,0.4,0.2,0.6,0.3c0,6.8,0.5,13.7,1.4,20.5c0.1,0.7,0.3,1.3,0.7,1.9
            c2.8,4.5,8.5,5.7,17.1,3.7c2.1-0.5,4.2-1.2,5.9-1.7C54,149.9,66,161,70.2,164.8c0.2,0.2,0.5,0.4,0.7,0.6c2.8,1.7,8.2,3.5,22.6,3.5
            c10.8,0,26.6-1,50.1-3.8c28.8-3.4,56.1-8,57.8-8.3c52.8-7.3,90.6-13,112.4-17.1c7.4-1.4,12.8-2.5,16.1-3.4c1.6-0.5,3.5-1,4.9-2.2
            c19.6-11,40.2-31.5,41-32.3c0,0,0.1-0.1,0.1-0.1C426.6,46.6,425.9,38,425.7,35.1z M384.3,77.5c-0.4,0-0.9,0-1.3,0.1L142.4,124
            c-2.7,0.5-4.5,3.1-4,5.9c0.5,2.4,2.6,4.1,4.9,4.1c0.3,0,0.6,0,1-0.1l229.2-44.2c-1.6,1.7-3.1,3.4-4.8,5.3
            c-1.3,1.3-21.5,21.2-39.6,31.1c-0.3,0.1-0.5,0.3-0.7,0.5c-3.5,1.2-22.8,6-128.3,20.6c-0.1,0-0.1,0-0.2,0c-0.3,0-28,4.7-57.4,8.2
            c-51.3,6-63.3,3.2-66,1.8c-8.8-8-18.9-18.1-21.2-21.8v-7c0-2.8-2.2-5-5-5s-5,2.2-5,5v4.9c-4.4,1.5-8.9,2.5-11,2.2
            c-0.7-5.7-1.1-11.5-1-17.3l25.5-7.5c2.6-0.8,4.2-3.6,3.4-6.2s-3.6-4.2-6.2-3.4l-28.4,8.4c-0.6-0.3-2.4-2-3.9-7.2
            C21,92.3,25.5,82,34.5,77.4c2.6-1.3,5.3-2.4,8.1-3.3c4.7-1.6,10.1-1,14.2,1.8c0.1,0,0.1,0.1,0.2,0.1c1.4,0.9,2.4,2.2,2.9,3.8
            c0,0.1,0,0.1,0.1,0.2l4.3,13c0.8,2.3,3.1,3.8,5.5,3.4c16.5-2.7,48.1-10.2,100.5-22.7l3.2-0.8c0.8-0.2,1.6-0.6,2.2-1.2
            c0.5-0.5,54.2-49.8,101.1-56.4c2.7,1.7,10.7,7.3,28.5,23.3L202.3,60c-2.7,0.6-4.4,3.2-3.9,5.9c0.5,2.4,2.6,4,4.9,4
            c0.3,0,0.7,0,1-0.1l112.5-23.4c39.1-6.1,84.3-10.5,97.8-8.2C412.3,42.7,405.4,53.5,384.3,77.5z"/>
              </svg>